<svg xmlns="http://www.w3.org/2000/svg" width="1024" height="1024" viewBox="0 0 1024 1024">
      <defs>
        <linearGradient id="gold" x1="0%" y1="0%" x2="100%" y2="100%">
          <stop offset="0%" stop-color="#ffd166" />
          <stop offset="100%" stop-color="#ffbf3c" />
        </linearGradient>
      </defs>
      
    <g
      fill="none"
      stroke="#fffafc"
      stroke-linecap="round"
      stroke-linejoin="round"
      opacity="0.98"
    >
      <g stroke-width="13.3"><path d="M 512.0 392.0 Q 565.7 382.3 596.9 427.1" /><path d="M 596.9 427.1 Q 641.7 458.3 632.0 512.0" /><path d="M 632.0 512.0 Q 641.7 565.7 596.9 596.9" /><path d="M 596.9 596.9 Q 565.7 641.7 512.0 632.0" /><path d="M 512.0 632.0 Q 458.3 641.7 427.1 596.9" /><path d="M 427.1 596.9 Q 382.3 565.7 392.0 512.0" /><path d="M 392.0 512.0 Q 382.3 458.3 427.1 427.1" /><path d="M 427.1 427.1 Q 458.3 382.3 512.0 392.0" /><path d="M 512.0 324.0 Q 596.2 308.8 644.9 379.1" /><path d="M 644.9 379.1 Q 715.2 427.8 700.0 512.0" /><path d="M 700.0 512.0 Q 715.2 596.2 644.9 644.9" /><path d="M 644.9 644.9 Q 596.2 715.2 512.0 700.0" /><path d="M 512.0 700.0 Q 427.8 715.2 379.1 644.9" /><path d="M 379.1 644.9 Q 308.8 596.2 324.0 512.0" /><path d="M 324.0 512.0 Q 308.8 427.8 379.1 379.1" /><path d="M 379.1 379.1 Q 427.8 308.8 512.0 324.0" /><path d="M 512.0 258.0 Q 625.7 237.4 691.6 332.4" /><path d="M 691.6 332.4 Q 786.6 398.3 766.0 512.0" /><path d="M 766.0 512.0 Q 786.6 625.7 691.6 691.6" /><path d="M 691.6 691.6 Q 625.7 786.6 512.0 766.0" /><path d="M 512.0 766.0 Q 398.3 786.6 332.4 691.6" /><path d="M 332.4 691.6 Q 237.4 625.7 258.0 512.0" /><path d="M 258.0 512.0 Q 237.4 398.3 332.4 332.4" /><path d="M 332.4 332.4 Q 398.3 237.4 512.0 258.0" /><path d="M 512.0 192.0 Q 655.3 166.1 738.3 285.7" /><path d="M 738.3 285.7 Q 857.9 368.7 832.0 512.0" /><path d="M 832.0 512.0 Q 857.9 655.3 738.3 738.3" /><path d="M 738.3 738.3 Q 655.3 857.9 512.0 832.0" /><path d="M 512.0 832.0 Q 368.7 857.9 285.7 738.3" /><path d="M 285.7 738.3 Q 166.1 655.3 192.0 512.0" /><path d="M 192.0 512.0 Q 166.1 368.7 285.7 285.7" /><path d="M 285.7 285.7 Q 368.7 166.1 512.0 192.0" /></g>
      <g stroke-width="12.3"><path d="M 512.0 472.0 L 512.0 148.0" /><path d="M 540.3 483.7 L 769.4 254.6" /><path d="M 552.0 512.0 L 876.0 512.0" /><path d="M 540.3 540.3 L 769.4 769.4" /><path d="M 512.0 552.0 L 512.0 876.0" /><path d="M 483.7 540.3 L 254.6 769.4" /><path d="M 472.0 512.0 L 148.0 512.0" /><path d="M 483.7 483.7 L 254.6 254.6" /></g>
      <g fill="#fffafc" stroke="none"><circle cx="512.0" cy="148.0" r="9.2" /><circle cx="769.4" cy="254.6" r="9.2" /><circle cx="876.0" cy="512.0" r="9.2" /><circle cx="769.4" cy="769.4" r="9.2" /><circle cx="512.0" cy="876.0" r="9.2" /><circle cx="254.6" cy="769.4" r="9.2" /><circle cx="148.0" cy="512.0" r="9.2" /><circle cx="254.6" cy="254.6" r="9.2" /></g>
    </g>
  
      <circle cx="512" cy="512" r="48" fill="url(#gold)" />
      <circle cx="500" cy="498" r="13" fill="#ffffff" opacity="0.4" />
    </svg>