<svg xmlns="http://www.w3.org/2000/svg" width="1024" height="1024" viewBox="0 0 1024 1024">
      <defs>
        <linearGradient id="gold" x1="0%" y1="0%" x2="100%" y2="100%">
          <stop offset="0%" stop-color="#ffd166" />
          <stop offset="100%" stop-color="#ffbf3c" />
        </linearGradient>
      </defs>
      
    <g
      fill="none"
      stroke="#fffafc"
      stroke-linecap="round"
      stroke-linejoin="round"
      opacity="0.98"
    >
      <g stroke-width="13.3"><path d="M 512.0 416.0 Q 555.0 408.2 579.9 444.1" /><path d="M 579.9 444.1 Q 615.8 469.0 608.0 512.0" /><path d="M 608.0 512.0 Q 615.8 555.0 579.9 579.9" /><path d="M 579.9 579.9 Q 555.0 615.8 512.0 608.0" /><path d="M 512.0 608.0 Q 469.0 615.8 444.1 579.9" /><path d="M 444.1 579.9 Q 408.2 555.0 416.0 512.0" /><path d="M 416.0 512.0 Q 408.2 469.0 444.1 444.1" /><path d="M 444.1 444.1 Q 469.0 408.2 512.0 416.0" /><path d="M 512.0 358.0 Q 581.0 345.5 620.9 403.1" /><path d="M 620.9 403.1 Q 678.5 443.0 666.0 512.0" /><path d="M 666.0 512.0 Q 678.5 581.0 620.9 620.9" /><path d="M 620.9 620.9 Q 581.0 678.5 512.0 666.0" /><path d="M 512.0 666.0 Q 443.0 678.5 403.1 620.9" /><path d="M 403.1 620.9 Q 345.5 581.0 358.0 512.0" /><path d="M 358.0 512.0 Q 345.5 443.0 403.1 403.1" /><path d="M 403.1 403.1 Q 443.0 345.5 512.0 358.0" /><path d="M 512.0 300.0 Q 606.9 282.8 661.9 362.1" /><path d="M 661.9 362.1 Q 741.2 417.1 724.0 512.0" /><path d="M 724.0 512.0 Q 741.2 606.9 661.9 661.9" /><path d="M 661.9 661.9 Q 606.9 741.2 512.0 724.0" /><path d="M 512.0 724.0 Q 417.1 741.2 362.1 661.9" /><path d="M 362.1 661.9 Q 282.8 606.9 300.0 512.0" /><path d="M 300.0 512.0 Q 282.8 417.1 362.1 362.1" /><path d="M 362.1 362.1 Q 417.1 282.8 512.0 300.0" /><path d="M 512.0 244.0 Q 632.0 222.3 701.5 322.5" /><path d="M 701.5 322.5 Q 801.7 392.0 780.0 512.0" /><path d="M 780.0 512.0 Q 801.7 632.0 701.5 701.5" /><path d="M 701.5 701.5 Q 632.0 801.7 512.0 780.0" /><path d="M 512.0 780.0 Q 392.0 801.7 322.5 701.5" /><path d="M 322.5 701.5 Q 222.3 632.0 244.0 512.0" /><path d="M 244.0 512.0 Q 222.3 392.0 322.5 322.5" /><path d="M 322.5 322.5 Q 392.0 222.3 512.0 244.0" /></g>
      <g stroke-width="12.3"><path d="M 512.0 472.0 L 512.0 208.0" /><path d="M 540.3 483.7 L 727.0 297.0" /><path d="M 552.0 512.0 L 816.0 512.0" /><path d="M 540.3 540.3 L 727.0 727.0" /><path d="M 512.0 552.0 L 512.0 816.0" /><path d="M 483.7 540.3 L 297.0 727.0" /><path d="M 472.0 512.0 L 208.0 512.0" /><path d="M 483.7 483.7 L 297.0 297.0" /></g>
      <g fill="#fffafc" stroke="none"><circle cx="512.0" cy="208.0" r="9.2" /><circle cx="727.0" cy="297.0" r="9.2" /><circle cx="816.0" cy="512.0" r="9.2" /><circle cx="727.0" cy="727.0" r="9.2" /><circle cx="512.0" cy="816.0" r="9.2" /><circle cx="297.0" cy="727.0" r="9.2" /><circle cx="208.0" cy="512.0" r="9.2" /><circle cx="297.0" cy="297.0" r="9.2" /></g>
    </g>
  
      <circle cx="512" cy="512" r="48" fill="url(#gold)" />
      <circle cx="500" cy="498" r="13" fill="#ffffff" opacity="0.4" />
    </svg>