<svg xmlns="http://www.w3.org/2000/svg" width="1024" height="1024" viewBox="0 0 1024 1024">
      <defs>
        <linearGradient id="bg" x1="0%" y1="0%" x2="100%" y2="100%">
          <stop offset="0%" stop-color="#ff7a8e" />
          <stop offset="48%" stop-color="#f43b57" />
          <stop offset="100%" stop-color="#d92c47" />
        </linearGradient>
        <radialGradient id="glow" cx="28%" cy="20%" r="72%">
          <stop offset="0%" stop-color="#ffffff" stop-opacity="0.34" />
          <stop offset="62%" stop-color="#ffffff" stop-opacity="0.08" />
          <stop offset="100%" stop-color="#ffffff" stop-opacity="0" />
        </radialGradient>
        <linearGradient id="gold" x1="0%" y1="0%" x2="100%" y2="100%">
          <stop offset="0%" stop-color="#ffd166" />
          <stop offset="100%" stop-color="#ffbf3c" />
        </linearGradient>
      </defs>

      <rect width="1024" height="1024" fill="url(#bg)" />
      <rect width="1024" height="1024" fill="url(#glow)" />
      <circle cx="236" cy="208" r="210" fill="#ffffff" opacity="0.12" />
      <circle cx="794" cy="842" r="250" fill="#7e1630" opacity="0.10" />
      <path
        d="M130 318 C272 172 480 130 672 186 C774 216 852 274 916 362"
        fill="none"
        stroke="#ffffff"
        opacity="0.16"
        stroke-width="20"
        stroke-linecap="round"
      />
      <path
        d="M112 702 C224 816 392 880 584 858 C734 840 838 770 914 666"
        fill="none"
        stroke="#ffffff"
        opacity="0.12"
        stroke-width="18"
        stroke-linecap="round"
      />

      <g transform="translate(0 18)" opacity="0.18">
    <g
      fill="none"
      stroke="#961a34"
      stroke-linecap="round"
      stroke-linejoin="round"
      opacity="0.98"
    >
      <g stroke-width="13.3"><path d="M 512.0 394.0 Q 564.8 384.4 595.4 428.6" /><path d="M 595.4 428.6 Q 639.6 459.2 630.0 512.0" /><path d="M 630.0 512.0 Q 639.6 564.8 595.4 595.4" /><path d="M 595.4 595.4 Q 564.8 639.6 512.0 630.0" /><path d="M 512.0 630.0 Q 459.2 639.6 428.6 595.4" /><path d="M 428.6 595.4 Q 384.4 564.8 394.0 512.0" /><path d="M 394.0 512.0 Q 384.4 459.2 428.6 428.6" /><path d="M 428.6 428.6 Q 459.2 384.4 512.0 394.0" /><path d="M 512.0 330.0 Q 593.5 315.3 640.7 383.3" /><path d="M 640.7 383.3 Q 708.7 430.5 694.0 512.0" /><path d="M 694.0 512.0 Q 708.7 593.5 640.7 640.7" /><path d="M 640.7 640.7 Q 593.5 708.7 512.0 694.0" /><path d="M 512.0 694.0 Q 430.5 708.7 383.3 640.7" /><path d="M 383.3 640.7 Q 315.3 593.5 330.0 512.0" /><path d="M 330.0 512.0 Q 315.3 430.5 383.3 383.3" /><path d="M 383.3 383.3 Q 430.5 315.3 512.0 330.0" /><path d="M 512.0 266.0 Q 622.1 246.1 685.9 338.1" /><path d="M 685.9 338.1 Q 777.9 401.9 758.0 512.0" /><path d="M 758.0 512.0 Q 777.9 622.1 685.9 685.9" /><path d="M 685.9 685.9 Q 622.1 777.9 512.0 758.0" /><path d="M 512.0 758.0 Q 401.9 777.9 338.1 685.9" /><path d="M 338.1 685.9 Q 246.1 622.1 266.0 512.0" /><path d="M 266.0 512.0 Q 246.1 401.9 338.1 338.1" /><path d="M 338.1 338.1 Q 401.9 246.1 512.0 266.0" /><path d="M 512.0 210.0 Q 647.2 185.6 725.5 298.5" /><path d="M 725.5 298.5 Q 838.4 376.8 814.0 512.0" /><path d="M 814.0 512.0 Q 838.4 647.2 725.5 725.5" /><path d="M 725.5 725.5 Q 647.2 838.4 512.0 814.0" /><path d="M 512.0 814.0 Q 376.8 838.4 298.5 725.5" /><path d="M 298.5 725.5 Q 185.6 647.2 210.0 512.0" /><path d="M 210.0 512.0 Q 185.6 376.8 298.5 298.5" /><path d="M 298.5 298.5 Q 376.8 185.6 512.0 210.0" /></g>
      <g stroke-width="12.3"><path d="M 512.0 472.0 L 512.0 170.0" /><path d="M 540.3 483.7 L 753.8 270.2" /><path d="M 552.0 512.0 L 854.0 512.0" /><path d="M 540.3 540.3 L 753.8 753.8" /><path d="M 512.0 552.0 L 512.0 854.0" /><path d="M 483.7 540.3 L 270.2 753.8" /><path d="M 472.0 512.0 L 170.0 512.0" /><path d="M 483.7 483.7 L 270.2 270.2" /></g>
      <g fill="#961a34" stroke="none"><circle cx="512.0" cy="170.0" r="9.2" /><circle cx="753.8" cy="270.2" r="9.2" /><circle cx="854.0" cy="512.0" r="9.2" /><circle cx="753.8" cy="753.8" r="9.2" /><circle cx="512.0" cy="854.0" r="9.2" /><circle cx="270.2" cy="753.8" r="9.2" /><circle cx="170.0" cy="512.0" r="9.2" /><circle cx="270.2" cy="270.2" r="9.2" /></g>
    </g>
  </g>
      
    <g
      fill="none"
      stroke="#fffafc"
      stroke-linecap="round"
      stroke-linejoin="round"
      opacity="0.98"
    >
      <g stroke-width="13.3"><path d="M 512.0 394.0 Q 564.8 384.4 595.4 428.6" /><path d="M 595.4 428.6 Q 639.6 459.2 630.0 512.0" /><path d="M 630.0 512.0 Q 639.6 564.8 595.4 595.4" /><path d="M 595.4 595.4 Q 564.8 639.6 512.0 630.0" /><path d="M 512.0 630.0 Q 459.2 639.6 428.6 595.4" /><path d="M 428.6 595.4 Q 384.4 564.8 394.0 512.0" /><path d="M 394.0 512.0 Q 384.4 459.2 428.6 428.6" /><path d="M 428.6 428.6 Q 459.2 384.4 512.0 394.0" /><path d="M 512.0 330.0 Q 593.5 315.3 640.7 383.3" /><path d="M 640.7 383.3 Q 708.7 430.5 694.0 512.0" /><path d="M 694.0 512.0 Q 708.7 593.5 640.7 640.7" /><path d="M 640.7 640.7 Q 593.5 708.7 512.0 694.0" /><path d="M 512.0 694.0 Q 430.5 708.7 383.3 640.7" /><path d="M 383.3 640.7 Q 315.3 593.5 330.0 512.0" /><path d="M 330.0 512.0 Q 315.3 430.5 383.3 383.3" /><path d="M 383.3 383.3 Q 430.5 315.3 512.0 330.0" /><path d="M 512.0 266.0 Q 622.1 246.1 685.9 338.1" /><path d="M 685.9 338.1 Q 777.9 401.9 758.0 512.0" /><path d="M 758.0 512.0 Q 777.9 622.1 685.9 685.9" /><path d="M 685.9 685.9 Q 622.1 777.9 512.0 758.0" /><path d="M 512.0 758.0 Q 401.9 777.9 338.1 685.9" /><path d="M 338.1 685.9 Q 246.1 622.1 266.0 512.0" /><path d="M 266.0 512.0 Q 246.1 401.9 338.1 338.1" /><path d="M 338.1 338.1 Q 401.9 246.1 512.0 266.0" /><path d="M 512.0 210.0 Q 647.2 185.6 725.5 298.5" /><path d="M 725.5 298.5 Q 838.4 376.8 814.0 512.0" /><path d="M 814.0 512.0 Q 838.4 647.2 725.5 725.5" /><path d="M 725.5 725.5 Q 647.2 838.4 512.0 814.0" /><path d="M 512.0 814.0 Q 376.8 838.4 298.5 725.5" /><path d="M 298.5 725.5 Q 185.6 647.2 210.0 512.0" /><path d="M 210.0 512.0 Q 185.6 376.8 298.5 298.5" /><path d="M 298.5 298.5 Q 376.8 185.6 512.0 210.0" /></g>
      <g stroke-width="12.3"><path d="M 512.0 472.0 L 512.0 170.0" /><path d="M 540.3 483.7 L 753.8 270.2" /><path d="M 552.0 512.0 L 854.0 512.0" /><path d="M 540.3 540.3 L 753.8 753.8" /><path d="M 512.0 552.0 L 512.0 854.0" /><path d="M 483.7 540.3 L 270.2 753.8" /><path d="M 472.0 512.0 L 170.0 512.0" /><path d="M 483.7 483.7 L 270.2 270.2" /></g>
      <g fill="#fffafc" stroke="none"><circle cx="512.0" cy="170.0" r="9.2" /><circle cx="753.8" cy="270.2" r="9.2" /><circle cx="854.0" cy="512.0" r="9.2" /><circle cx="753.8" cy="753.8" r="9.2" /><circle cx="512.0" cy="854.0" r="9.2" /><circle cx="270.2" cy="753.8" r="9.2" /><circle cx="170.0" cy="512.0" r="9.2" /><circle cx="270.2" cy="270.2" r="9.2" /></g>
    </g>
  

      <circle cx="512" cy="528" r="44" fill="#8f1b34" opacity="0.18" />
      <circle cx="512" cy="512" r="44" fill="url(#gold)" />
      <circle cx="502" cy="500" r="12" fill="#ffffff" opacity="0.42" />
    </svg>