<svg xmlns="http://www.w3.org/2000/svg" width="1024" height="1024" viewBox="0 0 1024 1024">
      
    <g
      fill="none"
      stroke="#ffffff"
      stroke-linecap="round"
      stroke-linejoin="round"
      opacity="0.98"
    >
      <g stroke-width="13.3"><path d="M 512.0 376.0 Q 591.6 374.2 629.8 444.0" /><path d="M 629.8 444.0 Q 671.1 512.0 629.8 580.0" /><path d="M 629.8 580.0 Q 591.6 649.8 512.0 648.0" /><path d="M 512.0 648.0 Q 432.4 649.8 394.2 580.0" /><path d="M 394.2 580.0 Q 352.9 512.0 394.2 444.0" /><path d="M 394.2 444.0 Q 432.4 374.2 512.0 376.0" /><path d="M 512.0 276.0 Q 650.1 272.9 716.4 394.0" /><path d="M 716.4 394.0 Q 788.1 512.0 716.4 630.0" /><path d="M 716.4 630.0 Q 650.1 751.1 512.0 748.0" /><path d="M 512.0 748.0 Q 373.9 751.1 307.6 630.0" /><path d="M 307.6 630.0 Q 235.9 512.0 307.6 394.0" /><path d="M 307.6 394.0 Q 373.9 272.9 512.0 276.0" /><path d="M 512.0 190.0 Q 700.4 185.7 790.9 351.0" /><path d="M 790.9 351.0 Q 888.7 512.0 790.9 673.0" /><path d="M 790.9 673.0 Q 700.4 838.3 512.0 834.0" /><path d="M 512.0 834.0 Q 323.6 838.3 233.1 673.0" /><path d="M 233.1 673.0 Q 135.3 512.0 233.1 351.0" /><path d="M 233.1 351.0 Q 323.6 185.7 512.0 190.0" /></g>
      <g stroke-width="12.3"><path d="M 512.0 472.0 L 512.0 124.0" /><path d="M 546.6 492.0 L 848.0 318.0" /><path d="M 546.6 532.0 L 848.0 706.0" /><path d="M 512.0 552.0 L 512.0 900.0" /><path d="M 477.4 532.0 L 176.0 706.0" /><path d="M 477.4 492.0 L 176.0 318.0" /></g>
      <g fill="#ffffff" stroke="none"><circle cx="512.0" cy="124.0" r="9.2" /><circle cx="848.0" cy="318.0" r="9.2" /><circle cx="848.0" cy="706.0" r="9.2" /><circle cx="512.0" cy="900.0" r="9.2" /><circle cx="176.0" cy="706.0" r="9.2" /><circle cx="176.0" cy="318.0" r="9.2" /></g>
    </g>
  
      <circle cx="512" cy="512" r="54" fill="#ffffff" />
    </svg>